<svg width="1920" height="531" viewBox="0 0 1920 531" fill="none" xmlns="http://www.w3.org/2000/svg">
<g filter="url(#filter0_i_1386_2491)">
<g clip-path="url(#clip0_1386_2491)">
<path d="M0 0H1920V531H0V0Z" fill="url(#paint0_linear_1386_2491)"/>
<path d="M-116.791 -277.024C-117.103 -282.997 -110.472 -286.771 -105.496 -283.453L1425.26 737.443C1431.08 741.326 1428.6 750.387 1421.61 750.752L-51.7846 827.74C-55.7945 827.949 -59.2151 824.869 -59.4246 820.859L-116.791 -277.024Z" fill="#1675AA"/>
<path d="M-351.165 70.5161C-355.137 74.6135 -353.369 81.4616 -347.91 83.1246L1452.03 631.458C1453.29 631.841 1454.63 631.893 1455.91 631.609L2358.26 431.591C2364.2 430.276 2366.29 422.893 2361.92 418.665L794.703 -1100.58C791.677 -1103.51 786.847 -1103.43 783.915 -1100.41L-351.165 70.5161Z" fill="#15577D"/>
<path d="M1636.3 -860.025C1634.38 -862.277 1630.93 -862.375 1628.88 -860.235L837.637 -32.8426C837.042 -32.2202 836.617 -31.4545 836.405 -30.6198L698.066 513.084C697.085 516.942 700.784 520.344 704.546 519.043L1957.62 85.6519C1959.57 84.9791 1960.9 83.1829 1960.99 81.1263L1982.33 -452.634C1982.38 -453.892 1981.95 -455.123 1981.13 -456.08L1636.3 -860.025Z" fill="#0B8BD5"/>
</g>
</g>
<defs>
<filter id="filter0_i_1386_2491" x="0" y="0" width="1920" height="541" filterUnits="userSpaceOnUse" color-interpolation-filters="sRGB">
<feFlood flood-opacity="0" result="BackgroundImageFix"/>
<feBlend mode="normal" in="SourceGraphic" in2="BackgroundImageFix" result="shape"/>
<feColorMatrix in="SourceAlpha" type="matrix" values="0 0 0 0 0 0 0 0 0 0 0 0 0 0 0 0 0 0 127 0" result="hardAlpha"/>
<feOffset dy="10"/>
<feGaussianBlur stdDeviation="8"/>
<feComposite in2="hardAlpha" operator="arithmetic" k2="-1" k3="1"/>
<feColorMatrix type="matrix" values="0 0 0 0 0.027451 0 0 0 0 0.141176 0 0 0 0 0.368627 0 0 0 0.25 0"/>
<feBlend mode="normal" in2="shape" result="effect1_innerShadow_1386_2491"/>
</filter>
<linearGradient id="paint0_linear_1386_2491" x1="64" y1="531" x2="1921.57" y2="168.335" gradientUnits="userSpaceOnUse">
<stop stop-color="#051D4D"/>
<stop offset="1" stop-color="#0C3EA0"/>
</linearGradient>
<clipPath id="clip0_1386_2491">
<path d="M0 0H1920V531H0V0Z" fill="white"/>
</clipPath>
</defs>
</svg>
