<svg width="27" height="27" viewBox="0 0 27 27" fill="none" xmlns="http://www.w3.org/2000/svg">
<g clip-path="url(#clip0_1386_2811)">
<path fill-rule="evenodd" clip-rule="evenodd" d="M25.0337 0.555542H2.29952C1.52008 0.555542 0.888855 1.18676 0.888855 1.96621V24.7004C0.888855 25.4799 1.52008 26.1111 2.29952 26.1111H14.5381V16.2147H11.2082V12.3584H14.5381V9.51276C14.5381 6.21099 16.5544 4.41443 19.4997 4.41443C20.9104 4.41443 22.1217 4.51921 22.4756 4.56649V8.01649H20.4337C18.8314 8.01649 18.5222 8.77804 18.5222 9.89482V12.3571H22.3415L21.8431 16.2134H18.5209V26.1111H25.0337C25.8132 26.1111 26.4444 25.4799 26.4444 24.7004V1.96621C26.4444 1.18676 25.8132 0.555542 25.0337 0.555542Z" fill="white"/>
</g>
<defs>
<clipPath id="clip0_1386_2811">
<rect width="25.5556" height="25.5556" fill="white" transform="translate(0.888855 0.555542)"/>
</clipPath>
</defs>
</svg>
