<svg width="31" height="31" viewBox="0 0 31 31" fill="none" xmlns="http://www.w3.org/2000/svg">
<path d="M19.2096 15.9723C19.2096 16.8215 18.9578 17.6515 18.486 18.3576C18.0143 19.0636 17.3437 19.6139 16.5592 19.9389C15.7747 20.2638 14.9115 20.3488 14.0787 20.1832C13.2458 20.0175 12.4808 19.6086 11.8804 19.0082C11.28 18.4077 10.8711 17.6427 10.7054 16.8099C10.5397 15.9771 10.6248 15.1138 10.9497 14.3293C11.2747 13.5448 11.825 12.8743 12.531 12.4026C13.237 11.9308 14.0671 11.679 14.9162 11.679C16.0538 11.6825 17.1438 12.136 17.9482 12.9404C18.7526 13.7448 19.206 14.8348 19.2096 15.9723ZM28.3329 10.069V21.8757C28.3329 23.8683 27.5413 25.7794 26.1323 27.1884C24.7233 28.5974 22.8122 29.389 20.8196 29.389H9.01291C7.02025 29.389 5.1092 28.5974 3.70018 27.1884C2.29115 25.7794 1.49957 23.8683 1.49957 21.8757V10.069C1.49957 8.07634 2.29115 6.16529 3.70018 4.75627C5.1092 3.34724 7.02025 2.55566 9.01291 2.55566H20.8196C22.8122 2.55566 24.7233 3.34724 26.1323 4.75627C27.5413 6.16529 28.3329 8.07634 28.3329 10.069ZM21.3562 15.9723C21.3562 14.6986 20.9785 13.4535 20.2709 12.3945C19.5633 11.3354 18.5575 10.51 17.3807 10.0225C16.204 9.53512 14.9091 9.40759 13.6599 9.65607C12.4106 9.90456 11.2631 10.5179 10.3625 11.4186C9.46182 12.3192 8.84847 13.4667 8.59998 14.7159C8.35149 15.9652 8.47903 17.2601 8.96646 18.4368C9.45388 19.6136 10.2793 20.6194 11.3384 21.327C12.3974 22.0346 13.6425 22.4123 14.9162 22.4123C16.6242 22.4123 18.2623 21.7338 19.47 20.5261C20.6777 19.3184 21.3562 17.6803 21.3562 15.9723ZM23.5029 8.99566C23.5029 8.67724 23.4085 8.36596 23.2316 8.1012C23.0547 7.83643 22.8032 7.63007 22.509 7.50822C22.2148 7.38636 21.8911 7.35448 21.5788 7.4166C21.2665 7.47872 20.9796 7.63206 20.7545 7.85722C20.5293 8.08238 20.376 8.36926 20.3138 8.68157C20.2517 8.99388 20.2836 9.3176 20.4055 9.61178C20.5273 9.90597 20.7337 10.1574 20.9984 10.3343C21.2632 10.5112 21.5745 10.6057 21.8929 10.6057C22.3199 10.6057 22.7294 10.436 23.0313 10.1341C23.3333 9.83217 23.5029 9.42266 23.5029 8.99566Z" fill="white"/>
</svg>
