<svg width="32" height="31" viewBox="0 0 32 31" fill="none" xmlns="http://www.w3.org/2000/svg">
<path d="M25.8263 2.55566C26.5794 2.55566 27.3016 2.85483 27.8341 3.38734C28.3666 3.91985 28.6658 4.64209 28.6658 5.39517V25.2717C28.6658 26.0248 28.3666 26.747 27.8341 27.2795C27.3016 27.8121 26.5794 28.1112 25.8263 28.1112H5.94974C5.19665 28.1112 4.47441 27.8121 3.9419 27.2795C3.40939 26.747 3.11023 26.0248 3.11023 25.2717V5.39517C3.11023 4.64209 3.40939 3.91985 3.9419 3.38734C4.47441 2.85483 5.19665 2.55566 5.94974 2.55566H25.8263ZM25.1164 24.5618V17.0371C25.1164 15.8096 24.6288 14.6324 23.7608 13.7644C22.8928 12.8964 21.7155 12.4087 20.488 12.4087C19.2812 12.4087 17.8757 13.147 17.1942 14.2544V12.6785H13.2331V24.5618H17.1942V17.5625C17.1942 16.4692 18.0744 15.5748 19.1676 15.5748C19.6948 15.5748 20.2004 15.7842 20.5731 16.157C20.9459 16.5297 21.1553 17.0353 21.1553 17.5625V24.5618H25.1164ZM8.61887 10.4495C9.25146 10.4495 9.85814 10.1982 10.3055 9.75089C10.7528 9.30358 11.0041 8.6969 11.0041 8.06431C11.0041 6.74394 9.93924 5.66492 8.61887 5.66492C7.98252 5.66492 7.37222 5.91771 6.92225 6.36769C6.47228 6.81766 6.21949 7.42795 6.21949 8.06431C6.21949 9.38468 7.2985 10.4495 8.61887 10.4495ZM10.5923 24.5618V12.6785H6.65961V24.5618H10.5923Z" fill="white"/>
</svg>
