<svg width="654" height="646" viewBox="0 0 654 646" fill="none" xmlns="http://www.w3.org/2000/svg">
<path opacity="0.75" d="M654 164.31V162.326C651.799 159.784 649.001 157.763 645.829 156.422C642.657 155.082 639.199 154.46 635.728 154.605C633.513 154.626 631.311 154.931 629.183 155.514C630.244 153.673 630.649 151.809 631.71 151.115C632.268 150.881 632.762 150.53 633.155 150.089C633.548 149.647 633.829 149.127 633.978 148.567C634.127 148.007 634.138 147.422 634.013 146.858C633.887 146.293 633.627 145.763 633.252 145.307C631.988 142.917 630.295 141.817 627.389 142.917C626.656 143.18 625.62 142.702 624.735 142.582C624.922 141.686 625.254 140.824 625.721 140.024C628.096 137.037 627.136 133.786 623.193 133.021C621.498 132.633 619.713 132.81 618.139 133.523C614.652 135.483 611.493 137.993 608.03 140.12C606.905 140.926 605.524 141.347 604.113 141.315C601.227 141.03 598.365 140.559 595.546 139.905C594.686 139.685 593.842 139.414 593.019 139.092C586.701 136.702 583.112 139.57 580.054 144.064C577.527 147.673 574.545 150.948 569.945 151.235C559.837 151.809 557.309 161.633 550.006 165.577C549.425 165.888 549.45 167.394 549.399 168.35C549.407 169.836 548.829 171.272 547.778 172.377C546.726 173.482 545.277 174.177 543.713 174.325C538.659 175.544 533.604 177.05 528.55 178.628C527.747 178.916 527.04 179.403 526.505 180.039C525.97 180.675 525.626 181.435 525.51 182.24C525.394 183.045 525.509 183.865 525.844 184.613C526.179 185.362 526.721 186.011 527.413 186.492C529.814 187.807 533.832 187.185 535.449 188.882C537.067 190.58 536.915 194.141 537.496 196.866C537.496 197.177 537.648 197.464 537.749 197.846L536.511 198.539C534.854 199.485 532.982 200.042 531.052 200.165C527.507 200.139 523.963 200.307 520.438 200.667C514.051 202.256 507.339 202.256 500.953 200.667C499.833 200.454 498.678 200.473 497.566 200.72C496.454 200.968 495.411 201.438 494.509 202.101C492.858 203.688 490.73 204.756 488.414 205.158C486.099 205.56 483.709 205.277 481.569 204.348C479.457 203.606 477.306 202.968 475.125 202.436C464.814 200.045 463.222 197.296 465.395 187.305C466.118 184.16 466.187 180.913 465.597 177.744C464.46 172.294 460.417 171.409 456.196 175.353C454.434 177.133 452.542 178.794 450.535 180.325C445.759 183.624 445.481 184.628 448.008 189.719C449.17 191.768 449.502 194.148 448.943 196.412C448.165 197.655 447.801 199.091 447.9 200.533C448 201.975 448.557 203.354 449.499 204.491C452.026 208.029 448.109 215.271 444.066 214.244C438.329 212.762 431.885 217.614 426.754 212.236C426.249 211.686 424.227 211.829 423.317 212.236C418.794 214.626 414.649 212.953 410.302 211.806C407.886 210.929 405.257 210.722 402.721 211.208C399.536 212.26 398.349 211.519 397.338 208.818C395.998 205.137 393.143 203.917 389.554 205.758C388.203 206.674 386.527 207.054 384.884 206.818C383.241 206.581 381.761 205.746 380.759 204.491C379.948 203.637 378.85 203.071 377.651 202.89C374.795 202.746 374.366 201.408 374.568 199.017C374.77 198.204 374.757 197.356 374.53 196.548C374.303 195.74 373.87 194.997 373.268 194.386C372.666 193.774 371.914 193.312 371.079 193.04C370.243 192.768 369.35 192.694 368.477 192.826C363.574 192.826 358.646 190.436 353.769 193.113C353.566 193.213 353.34 193.263 353.112 193.257C352.315 193.161 351.529 193.001 350.762 192.779C348.007 192.205 344.898 188.691 342.826 193.687C342.204 193.826 341.549 193.75 340.981 193.472C337.393 191.082 331.858 192.014 329.811 187.185C329.575 186.846 329.252 186.57 328.872 186.381C328.491 186.193 328.067 186.1 327.638 186.11C325.321 186.397 322.966 186.156 320.768 185.408C318.57 184.659 316.593 183.425 315.002 181.807C314.713 181.631 314.389 181.513 314.05 181.46C313.711 181.406 313.364 181.419 313.03 181.496C304.211 183.313 300.774 175.425 294.632 172.389C292.939 171.553 291.878 169.282 290.185 168.804C283.589 166.987 278.307 163.091 272.873 159.458C272.166 159.004 271.534 157.067 271.888 156.757C274.255 153.354 275.84 149.518 276.538 145.498C277.313 142.082 278.886 138.872 281.142 136.105C283.399 133.338 286.281 131.084 289.578 129.507C290.058 129.268 290.488 128.097 290.665 127.117L291.246 126.758L290.741 126.519C290.741 126.113 290.741 125.778 290.589 125.683C287.379 123.292 283.791 121.5 280.48 119.396C278.553 118.542 276.832 117.321 275.426 115.811C272.945 112.283 269.112 109.806 264.736 108.903C261.905 108.209 259.681 107.803 257.912 105.341C256.421 103.394 254.827 101.519 253.136 99.7238C251.342 97.5486 249.168 96.2818 246.54 98.194C244.291 99.8194 243.785 98.7199 243.785 96.9271C243.785 93.2939 244.139 89.6367 244.215 85.9795C244.247 85.5728 244.191 85.1643 244.052 84.7782C243.913 84.3922 243.694 84.0366 243.406 83.7326C241.413 82.463 239.976 80.5516 239.363 78.3544C238.98 76.7872 238.903 75.1671 239.135 73.5738C239.516 72.3152 240.105 71.1213 240.879 70.0361C241.955 70.4548 242.987 70.9669 243.962 71.5659C245.681 72.8089 247.804 75.6773 248.789 75.3426C252.871 73.8457 256.722 71.8358 260.237 69.3669C260.793 69.0083 259.151 65.9009 258.721 64.0365C258.582 63.0608 258.582 62.072 258.721 61.0964C259.024 57.9411 259.1 55.0489 254.324 55.0728C253.768 54.9508 253.251 54.708 252.812 54.3636C252.373 54.0192 252.026 53.5827 251.797 53.0888C250.23 49.0492 245.226 45.5593 249.497 40.468C249.952 39.9182 249.042 38.3645 248.865 37.2889C248.539 36.2418 248.47 35.1381 248.663 34.0619C251.19 28.4447 249.699 25.5524 243.457 24.7397C241.533 24.6244 239.714 23.8666 238.326 22.6015C236.937 21.3363 236.069 19.646 235.875 17.8317C234.536 12.4057 232.489 7.09923 230.669 1.76883C230.467 1.21906 229.86 0.812706 229.153 0C227.333 4.11134 224.098 5.21089 219.878 5.44992C213.206 5.83237 208.607 9.84808 204.134 14.0789C202.79 14.9808 201.24 15.5704 199.61 15.8C195.44 16.8278 190.562 16.78 187.227 18.9313C180.605 23.186 174.717 22.3733 168.197 19.3615C164.087 17.2765 159.726 15.6712 155.207 14.5809C145.932 12.6926 141.13 18.6683 143.152 27.2735C144.82 34.3249 144.567 41.7587 145.123 49.0492C145.135 49.1605 145.135 49.2726 145.123 49.3838C145.07 49.9328 144.851 50.4556 144.492 50.8897C141.636 54.3079 144.264 55.6704 147.019 57.2241C150.961 59.6144 151.441 65.3989 156.9 66.4029C156.99 66.7078 156.99 67.0301 156.9 67.3351C155.687 72.1157 158.72 72.3069 162.435 72.1157C163.989 72.0459 165.537 72.3502 166.933 73.0001C168.148 73.8372 169.229 74.8354 170.143 75.9641C169.197 76.8511 168.165 77.6515 167.06 78.3544C162.258 80.7447 157.38 82.7765 152.604 85.0951C150.961 85.9078 149.015 86.8878 151.997 88.7762C152.59 89.1476 153.094 89.6331 153.474 90.2011C153.855 90.769 154.105 91.4066 154.208 92.0721C154.31 92.7376 154.263 93.4161 154.07 94.0632C153.876 94.7104 153.54 95.3116 153.084 95.8276C150.86 99.3175 148.03 102.52 145.654 105.867C142.442 109.723 139.56 113.815 137.036 118.105C135.065 121.978 134.029 125.611 128.469 126.376C126.346 126.687 124.274 129.627 122.884 131.754C121.498 134.217 120.445 136.835 119.75 139.546C119.215 141.64 118.181 143.589 116.726 145.246C115.272 146.904 113.437 148.224 111.36 149.108C104.448 151.891 98.873 157.001 95.7168 163.45C94.3339 166.33 92.0946 168.768 89.272 170.466C86.4494 172.164 83.1655 173.048 79.8207 173.011C77.2482 173.185 74.7048 173.634 72.2391 174.349C64.9102 176.333 64.6575 176.333 60.2349 170.549C58.6175 168.469 56.3178 166.772 54.1949 168.493C51.5951 170.392 49.5723 172.907 48.3318 175.784C47.8723 177.594 46.9888 179.283 45.7465 180.727C44.5043 182.171 42.935 183.332 41.1546 184.126C36.1002 186.707 34.9124 191.297 35.4684 196.388C36.0244 201.479 39.9162 202.746 44.3894 203.057C45.3819 203.095 46.3586 203.306 47.2704 203.678C49.2163 204.539 49.2921 206.332 48.0285 209.176C47.0657 211.635 46.5447 214.228 46.487 216.849C46.2167 218.433 46.6206 220.054 47.6103 221.358C48.6001 222.661 50.0952 223.541 51.7688 223.805C58.3395 224.522 60.6393 227.844 60.6898 233.581C60.6898 234.992 61.8523 236.354 62.105 237.788C62.9643 242.449 63.9246 247.11 64.3037 251.819C64.3622 252.658 64.1614 253.494 63.7259 254.226C63.2904 254.958 62.6389 255.554 61.851 255.942C61.0632 256.33 60.173 256.492 59.2892 256.41C58.4053 256.327 57.566 256.003 56.8737 255.477C52.0721 250.959 47.144 252.465 42.5951 254.736C41.0913 255.462 39.4345 255.861 37.7463 255.903C36.0581 255.944 34.3816 255.627 32.8401 254.975C27.5559 253.511 22.1284 252.558 16.6408 252.13C15.2761 251.987 12.3445 254.162 12.4456 255.046C12.951 259.827 10.1458 259.827 6.43086 260.09C5.25961 260.101 4.11328 260.411 3.11326 260.988C2.11323 261.565 1.29672 262.387 0.75022 263.366C0.203724 264.346 -0.0524005 265.448 0.00890432 266.554C0.0702091 267.66 0.446674 268.731 1.09847 269.651C2.66534 272.041 3.92895 274.432 5.57162 276.631C6.53172 277.973 7.7592 279.126 9.1855 280.025C13.9114 282.75 18.8141 285.14 23.54 287.865C25.1774 288.932 27.0703 289.596 29.0472 289.796C31.0241 289.996 33.0227 289.727 34.8618 289.013C37.6467 288.258 40.5322 287.888 43.429 287.913C44.1619 287.913 44.9454 288.893 45.7288 289.419C45.1223 290.16 44.6927 291.188 43.8839 291.594C42.1149 292.502 39.4361 292.598 38.3494 293.984C34.0279 299.339 27.2044 297.881 21.7204 299.912C21.1139 300.151 19.6481 299.339 19.1932 298.646C17.9043 296.662 16.1606 294.582 14.1388 296.518C13.0269 297.546 13.3807 300.749 14.1388 302.59C15.3089 304.584 16.7725 306.411 18.4856 308.016C24.5256 315.402 30.5909 322.764 36.6056 330.198C45.2234 340.835 52.9313 342.795 66.0474 337.775C69.3492 336.526 72.7145 335.433 76.131 334.5C85.1531 332.11 87.2254 329.72 87.4023 321.473C87.192 319.861 86.8712 318.265 86.442 316.692C86.2109 315.661 86.2631 314.592 86.5936 313.585C87.7308 311.195 89.1208 308.804 90.6118 306.199C95.6662 307.059 97.0057 308.302 95.3377 313.752C94.1246 317.768 94.2763 320.66 99.1032 322.596C93.6192 325.847 94.9081 329.361 96.576 333.305C98.2955 336.453 99.2537 339.923 99.3812 343.464C99.1285 347.766 97.0056 351.949 95.9189 356.228C95.0262 358.852 94.6076 361.6 94.6806 364.355C95.6409 373.486 98.1934 382.522 96.5507 391.844C96.5195 392.826 96.6736 393.805 97.0056 394.736C98.7747 402.863 100.898 410.942 102.212 419.141C103.526 427.34 103.981 435.706 104.992 443.953C105.724 450.024 106.963 455.904 112.118 460.398C112.876 461.043 112.978 462.406 113.281 463.481C114.999 469.29 115.201 476.15 118.74 480.692C124.452 487.62 128.326 495.743 130.036 504.38C130.921 509.16 132.841 513.941 133.145 518.722C133.942 527.008 136.269 535.098 140.019 542.625C143.759 550.895 149.976 557.588 154.019 565.763C161.325 581.331 166.571 597.693 169.637 614.477C170.471 618.989 171.645 623.438 173.15 627.791C174.003 630.481 175.432 632.974 177.35 635.117C179.268 637.26 181.632 639.006 184.295 640.245C187.757 641.751 191.169 643.352 194.606 644.882C200.545 647.559 210.148 645.217 213.737 640.102C214.234 638.926 214.441 637.659 214.343 636.397C214.52 633.194 214.343 629.967 214.849 626.835C215.43 622.844 218.008 621.122 222.431 621.242C226.061 621.279 229.679 620.82 233.171 619.88C233.949 619.567 234.632 619.076 235.158 618.449C235.683 617.823 236.034 617.082 236.178 616.294C235.931 614.843 236.07 613.356 236.583 611.968C237.423 609.985 238.61 608.15 240.096 606.542C242.091 604.484 243.737 602.145 244.973 599.61C246.692 594.829 249.825 593.873 254.602 594.566C259.378 595.259 260.187 594.04 259.808 589.475C259.378 584.288 259.328 579.077 259.1 573.866C259.254 571.259 259.084 568.644 258.595 566.074C257.938 563.956 257.795 561.726 258.176 559.55C258.557 557.373 259.451 555.305 260.793 553.501C265.14 546.688 270.675 540.234 269.967 531.486C270.005 530.66 270.314 529.866 270.852 529.215C273.379 525.701 272.57 522.044 271.458 518.387C270.569 515.977 270.368 513.388 270.877 510.881C271.31 509.674 271.411 508.384 271.173 507.129C270.934 505.875 270.363 504.699 269.512 503.71C268.758 502.417 268.383 500.956 268.425 499.479C268.425 497.687 268.426 495.822 268.552 493.982C268.818 491.346 268.604 488.686 267.92 486.118C266.025 480.285 269.765 475.313 269.209 469.84C269.209 469.099 271.054 468.047 272.242 467.449C274.198 466.427 276.255 465.587 278.383 464.94C278.91 464.835 279.453 464.83 279.982 464.924C280.511 465.018 281.015 465.21 281.466 465.489C287.759 469.409 287.759 469.433 290.64 462.669C290.827 461.846 291.106 461.045 291.473 460.278C293.268 457.888 295.441 453.299 297.008 453.466C301.86 453.968 305.803 451.53 310.301 451.41C319.98 451.195 322.558 447.921 320.764 438.957C320.511 437.714 320.764 435.634 321.547 435.085C324.642 432.757 328.094 430.887 331.782 429.539C334.558 428.879 337.138 427.63 339.328 425.886C341.517 424.142 343.258 421.95 344.418 419.476C345.229 417.652 346.463 416.024 348.029 414.712C349.596 413.401 351.453 412.439 353.466 411.899C363.574 408.815 369.286 401.333 374.113 393.039C380.684 381.781 389.807 373.749 403.656 371.191C407.919 370.743 412.012 369.36 415.609 367.152C419.148 364.427 421.119 359.981 423.873 356.252C423.952 356.11 424.054 355.98 424.177 355.87C424.888 354.958 425.74 354.152 426.704 353.479C432.415 349.535 432.643 347.91 428.094 342.436C425.263 339.042 425.718 336.914 429.635 334.357C431.114 333.533 432.438 332.483 433.553 331.249C437.824 325.56 447.705 324.078 454.25 327.831C455.037 328.054 455.869 328.092 456.675 327.942C457.481 327.792 458.236 327.459 458.875 326.971C460.987 324.998 462.923 322.864 464.662 320.589C464.751 322.399 465.005 324.198 465.421 325.967C469.414 326.11 473.432 325.847 477.425 325.656C477.425 324.748 477.223 323.815 477.096 322.883C476.97 321.951 476.818 320.493 476.667 319.37C476.667 319.226 476.667 318.987 476.667 318.891C480.483 314.804 479.194 311.195 475.454 307.824C477.602 301.299 470.677 296.112 472.446 289.586C472.598 289.06 471.511 287.937 470.753 287.531C466.229 285.14 466.608 280.168 464.233 276.655C463.93 276.224 464.814 274.886 465.37 274.121C466.618 272.166 467.017 269.829 466.485 267.602C465.953 265.374 464.53 263.427 462.514 262.169C459.355 260.353 456.272 258.417 453.315 256.313C449.904 253.923 450.232 252.393 454.023 250.337C455.767 249.381 458.547 248.186 458.673 246.919C459.052 242.927 461.554 242.856 464.587 242.784C465.961 242.87 467.338 242.649 468.605 242.139C469.081 241.812 469.449 241.364 469.666 240.848C469.944 240.37 470.172 239.82 470.45 239.342C467.569 238.051 467.013 234.442 462.666 233.94C458.723 233.486 455.084 230.307 451.42 228.275C451.117 228.131 450.99 227.39 451.066 226.984C451.849 222.371 455.034 218.976 457.839 215.415C458.168 214.985 459.305 215.152 460.063 214.985L462.009 214.483C464.536 215.176 467.291 216.73 468.352 216.036C470.349 214.746 471.056 214.1 471.637 214.698C472.119 215.438 472.477 216.244 472.699 217.088C474.013 220.889 477.501 220.793 480.508 221.869C484.147 223.088 482.883 219.478 484.273 218.594C485.107 218.044 485.916 217.423 486.801 216.849C488.488 220.909 488.684 225.388 487.357 229.566C485.31 235.422 488.898 239.892 495.393 240.848C500.536 241.592 505.733 241.944 510.935 241.9C522.106 241.9 533.301 241.278 544.471 241.063C545.507 241.063 546.544 241.971 547.58 242.449C547.125 243.214 546.67 243.979 546.24 244.84C544.869 246.883 543.742 249.063 542.879 251.341C542.357 253.928 541.055 256.316 539.132 258.22C537.209 260.124 534.745 261.462 532.037 262.074C523.875 264.321 521.777 267.572 521.347 276.774C521.574 279.69 522.582 282.504 524.275 284.95C525.968 287.396 528.292 289.395 531.027 290.758C533.958 292 539.796 290.017 538.911 288.63C536.384 284.567 540.63 281.985 540.377 278.71C540.099 274.958 542.475 274.91 544.825 275.77C545.581 276.13 546.25 276.635 546.79 277.252C547.329 277.869 547.727 278.585 547.959 279.356C550.183 288.033 552.154 296.781 554.176 305.506C554.679 307.318 555.797 308.923 557.359 310.076C558.92 311.229 560.838 311.866 562.819 311.888C563.968 311.568 565.022 310.999 565.899 310.228C566.777 309.456 567.452 308.503 567.873 307.442C568.722 303.68 569.238 299.859 569.415 296.016C569.769 293.052 569.415 289.61 570.805 287.172C573.367 283.062 574.265 278.212 573.332 273.523C571.992 265.755 574.368 263.962 582.278 266.352C587.787 267.93 590.011 267.189 591.325 262.217C593.726 253.182 595.596 243.979 597.896 234.92C598.421 232.822 599.479 230.878 600.979 229.255C606.893 223.016 611.442 216.538 608.157 207.551C607.893 206.874 607.78 206.154 607.824 205.434C607.867 204.715 608.066 204.011 608.409 203.368C609.953 201.122 611.806 199.08 613.919 197.296L614.449 196.914L614.93 196.579C622.36 191.966 627.186 183.815 637.497 182.859C640.707 182.548 642.552 182.022 644.27 184.747C645.382 186.636 646.621 189.313 649.173 187.448C652.206 185.201 648.339 183.887 647.278 182.668C643.31 177.72 643.361 176.285 647.859 171.744C650.083 169.282 651.953 166.724 654 164.31Z" fill="#F6F6F6"/>
<g filter="url(#filter0_d_3334_8722)">
<ellipse cx="158.805" cy="219.549" rx="22.4023" ry="22.5489" fill="white"/>
<path d="M172.005 206.264C168.551 202.637 163.772 200.683 158.806 200.758C153.84 200.683 149.079 202.637 145.625 206.264C142.004 209.74 140.062 214.551 140.137 219.549C140.062 224.548 142.004 229.339 145.607 232.816C149.06 236.461 153.84 238.415 158.806 238.34C163.772 238.415 168.532 236.461 171.986 232.834C175.608 229.358 177.549 224.548 177.474 219.549C177.549 214.551 175.608 209.74 172.005 206.264ZM168.14 219.549V230.824H161.606V221.428H156.005V230.824H149.471V219.549H145.737L158.806 206.395L172.807 219.549H168.14Z" fill="#051D4D"/>
<path d="M168.14 219.549V230.824H161.606V221.428H156.005V230.824H149.471V219.549H145.737L158.806 206.395L172.807 219.549H168.14Z" fill="white"/>
</g>
<g filter="url(#filter1_d_3334_8722)">
<ellipse cx="136.402" cy="317.234" rx="22.4023" ry="22.5489" fill="white"/>
<path d="M149.602 303.948C146.148 300.322 141.369 298.367 136.403 298.443C131.437 298.367 126.676 300.322 123.223 303.948C119.601 307.425 117.659 312.235 117.734 317.234C117.659 322.232 119.601 327.024 123.204 330.5C126.658 334.146 131.437 336.1 136.403 336.025C141.369 336.1 146.129 334.146 149.583 330.519C153.205 327.043 155.146 322.232 155.072 317.234C155.146 312.235 153.205 307.425 149.602 303.948ZM145.737 317.234V328.508H139.203V319.113H133.603V328.508H127.068V317.234H123.335L136.403 304.08L150.405 317.234H145.737Z" fill="#051D4D"/>
<path d="M145.737 317.234V328.508H139.203V319.113H133.603V328.508H127.068V317.234H123.335L136.403 304.08L150.405 317.234H145.737Z" fill="white"/>
</g>
<g filter="url(#filter2_d_3334_8722)">
<ellipse cx="248.416" cy="242.092" rx="22.4023" ry="22.5489" fill="white"/>
<path d="M261.615 228.806C258.161 225.18 253.382 223.226 248.416 223.301C243.45 223.226 238.69 225.18 235.236 228.806C231.614 232.283 229.673 237.093 229.747 242.092C229.673 247.09 231.614 251.882 235.217 255.358C238.671 259.004 243.45 260.958 248.416 260.883C253.382 260.958 258.143 259.004 261.597 255.377C265.218 251.901 267.16 247.09 267.085 242.092C267.16 237.093 265.218 232.283 261.615 228.806ZM257.751 242.092V253.366H251.217V243.971H245.616V253.366H239.082V242.092H235.348L248.416 228.938L262.418 242.092H257.751Z" fill="#051D4D"/>
<path d="M257.751 242.092V253.366H251.217V243.971H245.616V253.366H239.082V242.092H235.348L248.416 228.938L262.418 242.092H257.751Z" fill="white"/>
</g>
<g filter="url(#filter3_d_3334_8722)">
<ellipse cx="332.799" cy="353.302" rx="22.4023" ry="22.5489" fill="white"/>
<path d="M346 340.017C342.546 336.39 337.767 334.436 332.801 334.511C327.835 334.436 323.075 336.39 319.621 340.017C315.999 343.493 314.058 348.303 314.132 353.302C314.058 358.3 315.999 363.092 319.602 366.568C323.056 370.214 327.835 372.168 332.801 372.093C337.767 372.168 342.528 370.214 345.981 366.587C349.603 363.111 351.545 358.3 351.47 353.302C351.545 348.303 349.603 343.493 346 340.017ZM342.136 353.302V364.576H335.601V355.181H330.001V364.576H323.467V353.302H319.733L332.801 340.148L346.803 353.302H342.136Z" fill="#051D4D"/>
<path d="M342.136 353.302V364.576H335.601V355.181H330.001V364.576H323.467V353.302H319.733L332.801 340.148L346.803 353.302H342.136Z" fill="white"/>
</g>
<g filter="url(#filter4_d_3334_8722)">
<ellipse cx="207.402" cy="530.549" rx="22.4023" ry="22.5489" fill="white"/>
<path d="M220.602 517.264C217.148 513.637 212.369 511.683 207.403 511.758C202.437 511.683 197.676 513.637 194.223 517.264C190.601 520.74 188.659 525.551 188.734 530.549C188.659 535.548 190.601 540.339 194.204 543.816C197.658 547.461 202.437 549.415 207.403 549.34C212.369 549.415 217.129 547.461 220.583 543.834C224.205 540.358 226.146 535.548 226.072 530.549C226.146 525.551 224.205 520.74 220.602 517.264ZM216.737 530.549V541.824H210.203V532.428H204.603V541.824H198.068V530.549H194.335L207.403 517.395L221.405 530.549H216.737Z" fill="#051D4D"/>
<path d="M216.737 530.549V541.824H210.203V532.428H204.603V541.824H198.068V530.549H194.335L207.403 517.395L221.405 530.549H216.737Z" fill="white"/>
</g>
<defs>
<filter id="filter0_d_3334_8722" x="136.403" y="197" width="44.8054" height="75.5816" filterUnits="userSpaceOnUse" color-interpolation-filters="sRGB">
<feFlood flood-opacity="0" result="BackgroundImageFix"/>
<feColorMatrix in="SourceAlpha" type="matrix" values="0 0 0 0 0 0 0 0 0 0 0 0 0 0 0 0 0 0 127 0" result="hardAlpha"/>
<feMorphology radius="20.3221" operator="erode" in="SourceAlpha" result="effect1_dropShadow_3334_8722"/>
<feOffset dy="30.4832"/>
<feGaussianBlur stdDeviation="10.1611"/>
<feComposite in2="hardAlpha" operator="out"/>
<feColorMatrix type="matrix" values="0 0 0 0 0.0472222 0 0 0 0 0.150706 0 0 0 0 0.354167 0 0 0 0.1 0"/>
<feBlend mode="normal" in2="BackgroundImageFix" result="effect1_dropShadow_3334_8722"/>
<feBlend mode="normal" in="SourceGraphic" in2="effect1_dropShadow_3334_8722" result="shape"/>
</filter>
<filter id="filter1_d_3334_8722" x="114" y="294.685" width="44.8054" height="75.5816" filterUnits="userSpaceOnUse" color-interpolation-filters="sRGB">
<feFlood flood-opacity="0" result="BackgroundImageFix"/>
<feColorMatrix in="SourceAlpha" type="matrix" values="0 0 0 0 0 0 0 0 0 0 0 0 0 0 0 0 0 0 127 0" result="hardAlpha"/>
<feMorphology radius="20.3221" operator="erode" in="SourceAlpha" result="effect1_dropShadow_3334_8722"/>
<feOffset dy="30.4832"/>
<feGaussianBlur stdDeviation="10.1611"/>
<feComposite in2="hardAlpha" operator="out"/>
<feColorMatrix type="matrix" values="0 0 0 0 0.0472222 0 0 0 0 0.150706 0 0 0 0 0.354167 0 0 0 0.1 0"/>
<feBlend mode="normal" in2="BackgroundImageFix" result="effect1_dropShadow_3334_8722"/>
<feBlend mode="normal" in="SourceGraphic" in2="effect1_dropShadow_3334_8722" result="shape"/>
</filter>
<filter id="filter2_d_3334_8722" x="226.013" y="219.543" width="44.8053" height="75.5816" filterUnits="userSpaceOnUse" color-interpolation-filters="sRGB">
<feFlood flood-opacity="0" result="BackgroundImageFix"/>
<feColorMatrix in="SourceAlpha" type="matrix" values="0 0 0 0 0 0 0 0 0 0 0 0 0 0 0 0 0 0 127 0" result="hardAlpha"/>
<feMorphology radius="20.3221" operator="erode" in="SourceAlpha" result="effect1_dropShadow_3334_8722"/>
<feOffset dy="30.4832"/>
<feGaussianBlur stdDeviation="10.1611"/>
<feComposite in2="hardAlpha" operator="out"/>
<feColorMatrix type="matrix" values="0 0 0 0 0.0472222 0 0 0 0 0.150706 0 0 0 0 0.354167 0 0 0 0.1 0"/>
<feBlend mode="normal" in2="BackgroundImageFix" result="effect1_dropShadow_3334_8722"/>
<feBlend mode="normal" in="SourceGraphic" in2="effect1_dropShadow_3334_8722" result="shape"/>
</filter>
<filter id="filter3_d_3334_8722" x="310.397" y="330.753" width="44.8053" height="75.5816" filterUnits="userSpaceOnUse" color-interpolation-filters="sRGB">
<feFlood flood-opacity="0" result="BackgroundImageFix"/>
<feColorMatrix in="SourceAlpha" type="matrix" values="0 0 0 0 0 0 0 0 0 0 0 0 0 0 0 0 0 0 127 0" result="hardAlpha"/>
<feMorphology radius="20.3221" operator="erode" in="SourceAlpha" result="effect1_dropShadow_3334_8722"/>
<feOffset dy="30.4832"/>
<feGaussianBlur stdDeviation="10.1611"/>
<feComposite in2="hardAlpha" operator="out"/>
<feColorMatrix type="matrix" values="0 0 0 0 0.0472222 0 0 0 0 0.150706 0 0 0 0 0.354167 0 0 0 0.1 0"/>
<feBlend mode="normal" in2="BackgroundImageFix" result="effect1_dropShadow_3334_8722"/>
<feBlend mode="normal" in="SourceGraphic" in2="effect1_dropShadow_3334_8722" result="shape"/>
</filter>
<filter id="filter4_d_3334_8722" x="185" y="508" width="44.8053" height="75.5817" filterUnits="userSpaceOnUse" color-interpolation-filters="sRGB">
<feFlood flood-opacity="0" result="BackgroundImageFix"/>
<feColorMatrix in="SourceAlpha" type="matrix" values="0 0 0 0 0 0 0 0 0 0 0 0 0 0 0 0 0 0 127 0" result="hardAlpha"/>
<feMorphology radius="20.3221" operator="erode" in="SourceAlpha" result="effect1_dropShadow_3334_8722"/>
<feOffset dy="30.4832"/>
<feGaussianBlur stdDeviation="10.1611"/>
<feComposite in2="hardAlpha" operator="out"/>
<feColorMatrix type="matrix" values="0 0 0 0 0.0472222 0 0 0 0 0.150706 0 0 0 0 0.354167 0 0 0 0.1 0"/>
<feBlend mode="normal" in2="BackgroundImageFix" result="effect1_dropShadow_3334_8722"/>
<feBlend mode="normal" in="SourceGraphic" in2="effect1_dropShadow_3334_8722" result="shape"/>
</filter>
</defs>
</svg>
