<svg width="70" height="70" viewBox="0 0 70 70" fill="none" xmlns="http://www.w3.org/2000/svg">
<g clip-path="url(#clip0_3326_8746)">
<path fill-rule="evenodd" clip-rule="evenodd" d="M0 35C0 25.7174 3.68749 16.815 10.2513 10.2513C16.815 3.68749 25.7174 0 35 0C44.2826 0 53.185 3.68749 59.7487 10.2513C66.3125 16.815 70 25.7174 70 35C70 44.2826 66.3125 53.185 59.7487 59.7487C53.185 66.3125 44.2826 70 35 70C25.7174 70 16.815 66.3125 10.2513 59.7487C3.68749 53.185 0 44.2826 0 35ZM18.6667 28H23.3333V23.3333H18.6667V28ZM46.6667 28H51.3333V23.3333H46.6667V28ZM22.8667 40.6C24.2794 42.4836 26.1113 44.0125 28.2173 45.0655C30.3232 46.1185 32.6455 46.6667 35 46.6667C37.3545 46.6667 39.6768 46.1185 41.7827 45.0655C43.8887 44.0125 45.7206 42.4836 47.1333 40.6L50.8667 43.4C42.9333 53.9793 27.0667 53.9793 19.1333 43.4L22.8667 40.6Z" fill="#289FE3"/>
</g>
<defs>
<clipPath id="clip0_3326_8746">
<rect width="70" height="70" fill="white"/>
</clipPath>
</defs>
</svg>
